<svg width="24" height="24" viewBox="0 0 24 24" fill="none" xmlns="http://www.w3.org/2000/svg">
    <g clip-path="url(#clip0_1_533)">
        <g clip-path="url(#clip1_1_533)">
            <path
                d="M19.0001 4H5.00006C4.20441 4 3.44135 4.33583 2.87874 4.9336C2.31613 5.53137 2.00006 6.34212 2.00006 7.1875V17.8125C2.00006 18.6579 2.31613 19.4686 2.87874 20.0664C3.44135 20.6642 4.20441 21 5.00006 21H19.0001C19.7957 21 20.5588 20.6642 21.1214 20.0664C21.684 19.4686 22.0001 18.6579 22.0001 17.8125V7.1875C22.0001 6.34212 21.684 5.53137 21.1214 4.9336C20.5588 4.33583 19.7957 4 19.0001 4ZM18.5901 6.125L12.7101 12.3725C12.6171 12.4721 12.5065 12.5511 12.3847 12.6051C12.2628 12.659 12.1321 12.6868 12.0001 12.6868C11.8681 12.6868 11.7374 12.659 11.6155 12.6051C11.4937 12.5511 11.3831 12.4721 11.2901 12.3725L5.41006 6.125H18.5901ZM20.0001 17.8125C20.0001 18.0943 19.8947 18.3645 19.7072 18.5638C19.5197 18.7631 19.2653 18.875 19.0001 18.875H5.00006C4.73484 18.875 4.48049 18.7631 4.29295 18.5638C4.10542 18.3645 4.00006 18.0943 4.00006 17.8125V7.62312L9.88006 13.8706C10.4426 14.4675 11.2051 14.8028 12.0001 14.8028C12.7951 14.8028 13.5576 14.4675 14.1201 13.8706L20.0001 7.62312V17.8125Z"
                fill="url(#paint0_linear_1_533)" />
        </g>
    </g>
    <defs>
        <linearGradient id="paint0_linear_1_533" x1="31.4001" y1="-4.97225" x2="-2.03621"
            y2="-3.67559" gradientUnits="userSpaceOnUse">
            <stop stop-color="#0048FE" />
            <stop offset="1" stop-color="#851D86" />
        </linearGradient>
        <clipPath id="clip0_1_533">
            <rect width="24" height="24" fill="white" />
        </clipPath>
        <clipPath id="clip1_1_533">
            <rect width="24" height="24" fill="white" />
        </clipPath>
    </defs>
</svg>