<svg width="25" height="24" viewBox="0 0 25 24" fill="none" xmlns="http://www.w3.org/2000/svg">
    <g clip-path="url(#clip0_1_547)">
        <g clip-path="url(#clip1_1_547)">
            <path
                d="M21.0955 5.9017C21.0143 5.79391 20.9275 5.69044 20.8355 5.5917C20.9281 5.34514 20.9983 5.09079 21.0455 4.8317C21.1849 3.88389 21.0639 2.91604 20.6955 2.0317C20.6955 2.0317 19.5755 1.6817 17.0055 3.4117C15.9144 3.11043 14.7874 2.95904 13.6555 2.9617C12.5204 2.95971 11.3902 3.11108 10.2955 3.4117C7.72554 1.6617 6.60554 2.0317 6.60554 2.0317C6.24164 2.90669 6.12072 3.86369 6.25554 4.8017C6.30299 5.07156 6.37667 5.33615 6.47554 5.5917C6.38554 5.6917 6.29554 5.8017 6.21554 5.9017C5.4693 6.8377 5.07319 8.00483 5.09554 9.2017C5.09316 9.48555 5.10652 9.76932 5.13554 10.0517C5.45548 14.4817 8.40554 15.5117 11.2155 15.8317C10.8178 16.2016 10.5481 16.6884 10.4455 17.2217C10.3526 17.5774 10.3088 17.9442 10.3155 18.3117V19.6213C9.19732 19.7207 8.04906 19.558 7.69335 18.56C7.31095 17.605 6.67701 16.7714 5.85888 16.1479C5.79942 16.1153 5.74288 16.0778 5.68988 16.0356C5.61803 15.8466 5.49068 15.6838 5.32457 15.5686C5.15846 15.4534 4.96137 15.3911 4.75922 15.39H4.75441C4.49001 15.39 4.23634 15.4946 4.04892 15.6811C3.8615 15.8676 3.75561 16.1208 3.75441 16.3852C3.75051 17.1977 4.5635 17.7221 4.89699 17.9008C5.28592 18.2927 5.59882 18.7532 5.81984 19.2592C6.1841 20.2826 7.24904 21.8373 10.2857 21.6352C10.2867 21.6703 10.2877 21.7035 10.2881 21.7338L10.2925 22.0014C10.2925 22.1327 10.3183 22.2628 10.3685 22.3841C10.4188 22.5055 10.4924 22.6157 10.5853 22.7086C10.6782 22.8014 10.7884 22.8751 10.9098 22.9253C11.0311 22.9756 11.1612 23.0014 11.2925 23.0014L11.2956 23.0008L16.0067 23.0014C16.138 23.0015 16.2681 22.9756 16.3894 22.9254C16.5108 22.8751 16.621 22.8015 16.7139 22.7086C16.8068 22.6157 16.8804 22.5055 16.9307 22.3842C16.9809 22.2628 17.0068 22.1328 17.0067 22.0014C17.0067 22.0014 17.014 18.8418 17.014 18.3118C17.0207 17.9442 16.977 17.5775 16.884 17.2218L16.8822 17.2157L16.8856 17.2218C16.877 17.1868 16.8638 17.1583 16.8544 17.1243C16.7428 16.629 16.4848 16.1786 16.114 15.8317L16.1256 15.8526C16.1187 15.8464 16.1123 15.8377 16.1055 15.8317C18.9155 15.5117 21.8455 14.4617 22.1655 10.0517C22.1945 9.76931 22.2079 9.48554 22.2055 9.20169C22.2232 8.00721 21.8315 6.84267 21.0955 5.9017Z"
                fill="url(#paint0_linear_1_547)" />
        </g>
    </g>
    <defs>
        <linearGradient id="paint0_linear_1_547" x1="30.8784" y1="-9.0856" x2="0.0100832"
            y2="-8.19166" gradientUnits="userSpaceOnUse">
            <stop stop-color="#0048FE" />
            <stop offset="1" stop-color="#851D86" />
        </linearGradient>
        <clipPath id="clip0_1_547">
            <rect width="24" height="24" fill="white" transform="translate(0.97998)" />
        </clipPath>
        <clipPath id="clip1_1_547">
            <rect width="24" height="24" fill="white" transform="translate(0.97998)" />
        </clipPath>
    </defs>
</svg>