<svg width="24" height="24" viewBox="0 0 24 24" fill="none" xmlns="http://www.w3.org/2000/svg">
    <g clip-path="url(#clip0_1_539)">
        <g clip-path="url(#clip1_1_539)">
            <path
                d="M5.00348 7.0004H4.97532C4.6687 7.01889 4.36156 6.97397 4.07308 6.86844C3.7846 6.76291 3.52097 6.59903 3.29866 6.38705C3.07635 6.17507 2.90013 5.91953 2.78101 5.63639C2.66189 5.35325 2.60242 5.04859 2.60632 4.74143C2.61022 4.43428 2.6774 4.13123 2.80367 3.85121C2.92994 3.57118 3.11259 3.3202 3.34021 3.11392C3.56783 2.90765 3.83553 2.75052 4.1266 2.65235C4.41767 2.55418 4.72585 2.51707 5.0319 2.54334C5.33947 2.52106 5.64832 2.56266 5.93903 2.66552C6.22975 2.76838 6.49604 2.93027 6.72116 3.14102C6.94628 3.35177 7.12536 3.60682 7.24715 3.89013C7.36893 4.17343 7.43079 4.47887 7.42882 4.78724C7.42686 5.09561 7.36111 5.40023 7.23572 5.68197C7.11033 5.9637 6.92801 6.21644 6.70022 6.4243C6.47243 6.63216 6.2041 6.79065 5.9121 6.88979C5.6201 6.98893 5.31074 7.02659 5.00348 7.0004Z"
                fill="url(#paint0_linear_1_539)" />
            <path d="M7.01801 10H3.01801V22H7.01801V10Z" fill="url(#paint1_linear_1_539)" />
            <path
                d="M17.5175 10C16.8435 10.0018 16.1786 10.156 15.5725 10.451C14.9664 10.746 14.4349 11.1741 14.0175 11.7034V10H10.0175V22H14.0175V16.5C14.0175 15.9696 14.2283 15.4609 14.6033 15.0858C14.9784 14.7107 15.4871 14.5 16.0175 14.5C16.548 14.5 17.0567 14.7107 17.4318 15.0858C17.8068 15.4609 18.0175 15.9696 18.0175 16.5V22H22.0175V14.5C22.0175 13.9091 21.9012 13.3239 21.675 12.7779C21.4489 12.232 21.1174 11.7359 20.6995 11.318C20.2817 10.9002 19.7856 10.5687 19.2396 10.3425C18.6937 10.1164 18.1085 10 17.5175 10Z"
                fill="url(#paint2_linear_1_539)" />
        </g>
    </g>
    <defs>
        <linearGradient id="paint0_linear_1_539" x1="9.69555" y1="0.174223" x2="1.63091"
            y2="0.460822" gradientUnits="userSpaceOnUse">
            <stop stop-color="#0048FE" />
            <stop offset="1" stop-color="#851D86" />
        </linearGradient>
        <linearGradient id="paint1_linear_1_539" x1="8.89801" y1="3.66665" x2="2.2015" y2="3.74023"
            gradientUnits="userSpaceOnUse">
            <stop stop-color="#0048FE" />
            <stop offset="1" stop-color="#851D86" />
        </linearGradient>
        <linearGradient id="paint2_linear_1_539" x1="27.6575" y1="3.66665" x2="7.58744" y2="4.32822"
            gradientUnits="userSpaceOnUse">
            <stop stop-color="#0048FE" />
            <stop offset="1" stop-color="#851D86" />
        </linearGradient>
        <clipPath id="clip0_1_539">
            <rect width="24" height="24" fill="white" />
        </clipPath>
        <clipPath id="clip1_1_539">
            <rect width="24" height="24" fill="white" />
        </clipPath>
    </defs>
</svg>