<svg width="160" height="160" viewBox="0 0 160 160" fill="none" xmlns="http://www.w3.org/2000/svg">
    <g clip-path="url(#clip0_1_55)">
        <g clip-path="url(#clip1_1_55)">
            <path
                d="M129.999 60C134.838 55.1614 134.994 36.276 134.999 25.9992C134.999 25.4468 134.552 24.9998 134 25.0002C123.723 25.0052 104.838 25.1614 99.999 30L39.999 90L69.999 120L129.999 60Z"
                stroke="url(#paint0_linear_1_55)" stroke-width="8" />
            <path
                d="M22.1706 132.172C20.6084 133.734 20.6084 136.266 22.1706 137.828C23.7326 139.391 26.2654 139.391 27.8274 137.828L22.1706 132.172ZM42.1706 132.172C40.6084 133.734 40.6084 136.266 42.1706 137.828C43.7326 139.391 46.2654 139.391 47.8274 137.828L42.1706 132.172ZM22.1706 112.172C20.6084 113.734 20.6084 116.266 22.1706 117.828C23.7326 119.391 26.2654 119.391 27.8274 117.828L22.1706 112.172ZM27.8274 137.828L47.8274 117.828L42.1706 112.172L22.1706 132.172L27.8274 137.828ZM52.1706 122.172L42.1706 132.172L47.8274 137.828L57.8274 127.828L52.1706 122.172ZM32.1706 102.172L22.1706 112.172L27.8274 117.828L37.8274 107.828L32.1706 102.172Z"
                fill="url(#paint1_linear_1_55)" />
            <path
                d="M85 145L69.9996 120L94.9996 95C94.9996 95 99.9996 95 99.9996 115C99.9996 135 85 145 85 145Z"
                stroke="url(#paint2_linear_1_55)" stroke-width="8" />
            <path
                d="M39.9996 90L64.9996 65C64.9996 65 64.9996 60 44.9996 60C24.9996 60 15 75 15 75L39.9996 90Z"
                stroke="url(#paint3_linear_1_55)" stroke-width="8" />
        </g>
    </g>
    <defs>
        <linearGradient id="paint0_linear_1_55" x1="179.649" y1="-25.139" x2="20.7606" y2="-19.9015"
            gradientUnits="userSpaceOnUse">
            <stop stop-color="#0048FE" />
            <stop offset="1" stop-color="#851D86" />
        </linearGradient>
        <linearGradient id="paint1_linear_1_55" x1="69.099" y1="89.1666" x2="18.9237" y2="90.8206"
            gradientUnits="userSpaceOnUse">
            <stop stop-color="#0048FE" />
            <stop offset="1" stop-color="#851D86" />
        </linearGradient>
        <linearGradient id="paint2_linear_1_55" x1="139.95" y1="15.1388" x2="-2.21334" y2="19.8249"
            gradientUnits="userSpaceOnUse">
            <stop stop-color="#0048FE" />
            <stop offset="1" stop-color="#851D86" />
        </linearGradient>
        <linearGradient id="paint3_linear_1_55" x1="139.95" y1="15.1388" x2="-2.21334" y2="19.8249"
            gradientUnits="userSpaceOnUse">
            <stop stop-color="#0048FE" />
            <stop offset="1" stop-color="#851D86" />
        </linearGradient>
        <clipPath id="clip0_1_55">
            <rect width="160" height="160" fill="white" />
        </clipPath>
        <clipPath id="clip1_1_55">
            <rect width="160" height="160" fill="white" />
        </clipPath>
    </defs>
</svg>