<svg width="160" height="160" viewBox="0 0 160 160" fill="none" xmlns="http://www.w3.org/2000/svg">
    <g clip-path="url(#clip0_1_67)">
        <path fill-rule="evenodd" clip-rule="evenodd"
            d="M157.744 28.384L148.825 26.2792L124.72 50.2544L111.067 36.3452L134.577 11.6722L132.519 2.61292C127.551 0.95032 122.354 0.0704832 117.116 0.00492241C111.401 -0.0829802 105.73 1.00726 100.455 3.20772C95.3622 5.51384 90.7586 8.77554 86.8936 12.8161C82.5912 16.8929 79.1838 21.8206 76.888 27.2858C72.468 38.1626 72.468 50.3358 76.888 61.2126C53.049 84.673 29.518 108.444 6.30062 132.52C3.8993 135.666 2.7558 139.59 3.05312 143.536C3.28744 147.78 5.19562 151.758 8.35888 154.597C9.77682 156.141 11.4692 157.422 13.3559 158.349C15.2999 159.207 17.3924 159.698 19.5079 159.801C23.1214 159.733 26.586 158.36 29.2732 155.947C46.9744 139.281 80.8902 105.045 100.158 84.9818C105.384 87.201 110.998 88.3448 116.67 88.3334C122.379 88.3288 128.03 87.1798 133.287 84.9538C138.545 82.7278 143.303 79.4702 147.281 75.3736C155.452 67.0378 160.015 55.8206 159.985 44.1462C160.117 38.8042 159.36 33.4774 157.744 28.384ZM22.3552 147.837C21.915 148.228 21.3846 148.503 20.8114 148.637C20.2478 148.735 19.6714 148.735 19.1077 148.637C18.5166 148.547 17.9536 148.324 17.461 147.985C16.9325 147.676 16.4855 147.245 16.1575 146.727C14.5566 145.091 13.0586 141.98 14.5566 140.23C30.2224 123.564 62.4802 90.9872 82.6512 71.0726C83.7948 72.5824 85.0526 74.0238 86.4018 75.3736C87.7512 76.7804 89.2034 78.0844 90.7472 79.274C71.2392 99.2916 39.416 131.48 22.3552 147.837ZM149.488 44.1462C149.511 52.8968 146.103 61.304 139.974 67.5724C133.858 73.5742 125.632 76.9362 117.064 76.9362C108.497 76.9362 100.271 73.5742 94.1548 67.5724C89.672 62.8928 86.61 57.0362 85.3244 50.684C84.039 44.3316 84.5832 37.7448 86.8936 31.6896C88.4314 27.5688 90.817 23.8166 93.8956 20.6758C96.9742 17.5351 100.678 15.0757 104.766 13.4567C108.648 11.8313 112.816 10.9991 117.024 11.0088H119.929L99.1518 32.4332V40.3944L120.821 61.9676H128.368L149.488 41.1952V44.1462ZM25.8656 65.0216H43.3724L51.434 73.223L59.1868 65.5134L51.5826 57.7582V57.2662L52.2344 38.4042L49.7188 33.4054L17.0151 11.8781L10.2571 12.6331L0.754702 22.3444L0 29.196L21.0172 62.5738L25.8656 65.0216ZM15.0597 23.4768L41.52 40.9092L41.074 53.7546H28.7702L11.7093 26.7368L15.0597 23.4768ZM96.3044 103.089L104.012 95.391L139.528 131.823C142.52 134.968 144.188 139.143 144.188 143.484C144.188 147.826 142.52 152.001 139.528 155.146C137.279 157.456 134.386 159.035 131.227 159.678C128.068 160.321 124.788 159.997 121.816 158.749C119.918 157.907 118.217 156.68 116.819 155.146L80.8902 118.508L88.6546 110.753L124.469 147.288C124.95 147.819 125.549 148.23 126.218 148.489C127.534 149.023 129.007 149.023 130.323 148.489C130.992 148.23 131.591 147.819 132.073 147.288C132.573 146.792 132.963 146.195 133.216 145.538C133.479 144.866 133.618 144.153 133.628 143.433C133.616 142.713 133.481 142.001 133.228 141.328C132.974 140.671 132.585 140.074 132.084 139.578L96.3044 103.089Z"
            fill="url(#paint0_linear_1_67)" />
    </g>
    <defs>
        <linearGradient id="paint0_linear_1_67" x1="235.2" y1="-84.4446" x2="-32.4016" y2="-75.6238"
            gradientUnits="userSpaceOnUse">
            <stop stop-color="#0048FE" />
            <stop offset="1" stop-color="#851D86" />
        </linearGradient>
        <clipPath id="clip0_1_67">
            <rect width="160" height="160" fill="white" />
        </clipPath>
    </defs>
</svg>