<svg width="160" height="160" viewBox="0 0 160 160" fill="none" xmlns="http://www.w3.org/2000/svg">
    <path
        d="M80 75C96.5685 75 110 61.5685 110 45C110 28.4315 96.5685 15 80 15C63.4315 15 50 28.4315 50 45C50 61.5685 63.4315 75 80 75Z"
        stroke="url(#paint0_linear_1_114)" stroke-width="8" />
    <path
        d="M139 121.667C139 107.997 132.595 95.0502 121.479 85.6184L116.303 91.7184C125.816 99.79 131 110.583 131 121.667H139ZM131 121.667V141H139V121.667H131ZM131 141H29V149H131V141ZM29 141V121.667H21V141H29ZM38.5212 85.6184C27.4052 95.0502 21 107.997 21 121.667H29C29 110.583 34.1842 99.79 43.697 91.7184L38.5212 85.6184ZM80 71C64.5452 71 49.6174 76.2034 38.5212 85.6184L43.697 91.7184C53.23 83.6298 66.281 79 80 79V71ZM121.479 85.6184C110.383 76.2034 95.4548 71 80 71V79C93.719 79 106.77 83.6298 116.303 91.7184L121.479 85.6184ZM29 141H21C21 145.418 24.5818 149 29 149V141ZM131 141V149C135.418 149 139 145.418 139 141H131Z"
        fill="url(#paint1_linear_1_114)" />
    <defs>
        <linearGradient id="paint0_linear_1_114" x1="138.2" y1="-16.6668" x2="37.8494" y2="-13.3589"
            gradientUnits="userSpaceOnUse">
            <stop stop-color="#0048FE" />
            <stop offset="1" stop-color="#851D86" />
        </linearGradient>
        <linearGradient id="paint1_linear_1_114" x1="186.7" y1="38.0554" x2="3.01678" y2="47.57"
            gradientUnits="userSpaceOnUse">
            <stop stop-color="#0048FE" />
            <stop offset="1" stop-color="#851D86" />
        </linearGradient>
    </defs>
</svg>